<svg width="202" height="80" viewBox="0 0 202 80" fill="none" xmlns="http://www.w3.org/2000/svg">
<g clip-path="url(#clip0_5_15)">
<path d="M10.625 18.5C10.625 19.3284 11.2966 20 12.125 20H16.2083C17.0368 20 17.7083 20.6716 17.7083 21.5V25.1667C17.7083 25.9951 17.0368 26.6667 16.2083 26.6667H12.125C11.2966 26.6667 10.625 27.3382 10.625 28.1667V51.8333C10.625 52.6618 11.2966 53.3333 12.125 53.3333H16.2083C17.0368 53.3333 17.7083 54.0049 17.7083 54.8333V58.5C17.7083 59.3284 17.0368 60 16.2083 60H12.125C11.2966 60 10.625 60.6716 10.625 61.5V65.1667C10.625 65.9951 11.2966 66.6667 12.125 66.6667H72.875C73.7034 66.6667 74.375 65.9951 74.375 65.1667V61.5C74.375 60.6716 73.7034 60 72.875 60H68.7917C67.9632 60 67.2917 59.3284 67.2917 58.5V54.8333C67.2917 54.0049 67.9632 53.3333 68.7917 53.3333H72.875C73.7034 53.3333 74.375 52.6618 74.375 51.8333V28.1667C74.375 27.3382 73.7034 26.6667 72.875 26.6667H68.7917C67.9632 26.6667 67.2917 25.9951 67.2917 25.1667V21.5C67.2917 20.6716 67.9632 20 68.7917 20H72.875C73.7034 20 74.375 19.3284 74.375 18.5V14.8333C74.375 14.0049 73.7034 13.3333 72.875 13.3333L12.125 13.3333C11.2966 13.3333 10.625 14.0049 10.625 14.8333V18.5ZM58.7083 53.3333C59.5368 53.3333 60.2083 54.0049 60.2083 54.8333V58.5C60.2083 59.3284 59.5368 60 58.7083 60H54.625C53.7966 60 53.125 59.3284 53.125 58.5V54.8333C53.125 54.0049 53.7966 53.3333 54.625 53.3333H58.7083ZM44.5417 53.3333C45.3701 53.3333 46.0417 54.0049 46.0417 54.8333V58.5C46.0417 59.3284 45.3701 60 44.5417 60H40.4583C39.6299 60 38.9583 59.3284 38.9583 58.5V54.8333C38.9583 54.0049 39.6299 53.3333 40.4583 53.3333H44.5417ZM30.375 53.3333C31.2034 53.3333 31.875 54.0049 31.875 54.8333V58.5C31.875 59.3284 31.2034 60 30.375 60H26.2917C25.4632 60 24.7917 59.3284 24.7917 58.5V54.8333C24.7917 54.0049 25.4632 53.3333 26.2917 53.3333H30.375ZM58.7083 20C59.5368 20 60.2083 20.6716 60.2083 21.5V25.1667C60.2083 25.9951 59.5368 26.6667 58.7083 26.6667H54.625C53.7966 26.6667 53.125 25.9951 53.125 25.1667V21.5C53.125 20.6716 53.7966 20 54.625 20H58.7083ZM44.5417 20C45.3701 20 46.0417 20.6716 46.0417 21.5V25.1667C46.0417 25.9951 45.3701 26.6667 44.5417 26.6667H40.4583C39.6299 26.6667 38.9583 25.9951 38.9583 25.1667V21.5C38.9583 20.6716 39.6299 20 40.4583 20H44.5417ZM30.375 20C31.2034 20 31.875 20.6716 31.875 21.5V25.1667C31.875 25.9951 31.2034 26.6667 30.375 26.6667H26.2917C25.4632 26.6667 24.7917 25.9951 24.7917 25.1667L24.7917 21.5C24.7917 20.6716 25.4632 20 26.2917 20H30.375Z" fill="#D11111"/>
<path d="M48.75 38.701C49.75 39.2783 49.75 40.7217 48.75 41.299L39.75 46.4952C38.75 47.0725 37.5 46.3509 37.5 45.1962V34.8038C37.5 33.6491 38.75 32.9275 39.75 33.5048L48.75 38.701Z" fill="white"/>
</g>
<path d="M102.55 40.5C102.55 38.9 102.883 37.4833 103.55 36.25C104.25 34.9833 105.183 34 106.35 33.3C107.55 32.6 108.9 32.25 110.4 32.25C111.633 32.25 112.783 32.45 113.85 32.85C114.95 33.2167 115.9 33.7167 116.7 34.35C117.5 34.9833 118.067 35.6833 118.4 36.45V31.45C117.6 30.5167 116.45 29.8 114.95 29.3C113.483 28.7667 111.967 28.5 110.4 28.5C108.167 28.5 106.15 29.0167 104.35 30.05C102.55 31.0833 101.117 32.5 100.05 34.3C99.0167 36.1 98.5 38.1667 98.5 40.5C98.5 42.8 99.0167 44.8667 100.05 46.7C101.117 48.5 102.55 49.9167 104.35 50.95C106.15 51.9833 108.167 52.5 110.4 52.5C111.967 52.5 113.483 52.25 114.95 51.75C116.45 51.2167 117.6 50.4833 118.4 49.55V44.55C118.067 45.2833 117.5 45.9833 116.7 46.65C115.9 47.2833 114.95 47.8 113.85 48.2C112.783 48.5667 111.633 48.75 110.4 48.75C108.9 48.75 107.55 48.4 106.35 47.7C105.183 46.9667 104.25 45.9833 103.55 44.75C102.883 43.5167 102.55 42.1 102.55 40.5ZM124.627 19.5C124.627 20.2333 124.894 20.8833 125.427 21.45C125.994 21.9833 126.644 22.25 127.377 22.25C128.144 22.25 128.794 21.9833 129.327 21.45C129.86 20.8833 130.127 20.2333 130.127 19.5C130.127 18.7333 129.86 18.0833 129.327 17.55C128.794 17.0167 128.144 16.75 127.377 16.75C126.644 16.75 125.994 17.0167 125.427 17.55C124.894 18.0833 124.627 18.7333 124.627 19.5ZM125.377 29V52H129.377V29H125.377ZM152.365 38V52H156.365V37.5C156.365 34.7333 155.649 32.55 154.215 30.95C152.815 29.3167 150.899 28.5 148.465 28.5C146.965 28.5 145.632 28.8333 144.465 29.5C143.332 30.1667 142.382 31.2 141.615 32.6V29H137.615V52H141.615V38C141.615 36.8667 141.849 35.8667 142.315 35C142.815 34.1333 143.499 33.4667 144.365 33C145.265 32.5 146.299 32.25 147.465 32.25C149.065 32.25 150.282 32.7333 151.115 33.7C151.949 34.6667 152.365 36.1 152.365 38ZM172.785 52.5C175.251 52.5 177.385 52.0167 179.185 51.05C181.018 50.05 182.535 48.5833 183.735 46.65L180.485 44.6C179.651 46 178.635 47.05 177.435 47.75C176.235 48.4167 174.851 48.75 173.285 48.75C171.718 48.75 170.385 48.4167 169.285 47.75C168.185 47.0833 167.351 46.1167 166.785 44.85C166.218 43.5833 165.935 42.05 165.935 40.25C165.968 38.4833 166.268 37 166.835 35.8C167.435 34.5667 168.268 33.6333 169.335 33C170.435 32.3333 171.751 32 173.285 32C174.585 32 175.718 32.2833 176.685 32.85C177.651 33.4167 178.401 34.2 178.935 35.2C179.501 36.2 179.785 37.3833 179.785 38.75C179.785 38.9833 179.735 39.2833 179.635 39.65C179.535 39.9833 179.435 40.2333 179.335 40.4L180.935 38.1H164.435V41.5H184.085C184.085 41.4333 184.085 41.2833 184.085 41.05C184.118 40.7833 184.135 40.5333 184.135 40.3C184.135 37.8667 183.701 35.7667 182.835 34C181.968 32.2333 180.718 30.8833 179.085 29.95C177.485 28.9833 175.551 28.5 173.285 28.5C171.018 28.5 169.018 29 167.285 30C165.585 31 164.251 32.4 163.285 34.2C162.351 36 161.885 38.1 161.885 40.5C161.885 42.8667 162.335 44.95 163.235 46.75C164.168 48.55 165.451 49.9667 167.085 51C168.751 52 170.651 52.5 172.785 52.5Z" fill="#D11111"/>
<defs>
<clipPath id="clip0_5_15">
<rect width="80" height="85" fill="white" transform="translate(0 80) rotate(-90)"/>
</clipPath>
</defs>
</svg>
