<svg width="64" height="62" viewBox="0 0 64 62" fill="none" xmlns="http://www.w3.org/2000/svg">
<path d="M0 6.74195C0 7.29424 0.447715 7.74195 1 7.74195H6.05882C6.61111 7.74195 7.05882 8.18967 7.05882 8.74195V14.4839C7.05882 15.0362 6.61111 15.4839 6.05882 15.4839H1C0.447716 15.4839 0 15.9316 0 16.4839L0 45.4516C0 46.0039 0.447715 46.4516 1 46.4516H6.05882C6.61111 46.4516 7.05882 46.8993 7.05882 47.4516V53.1936C7.05882 53.7458 6.61111 54.1936 6.05882 54.1936H1C0.447716 54.1936 0 54.6413 0 55.1936L0 60.9355C0 61.4878 0.447715 61.9355 1 61.9355L62.5294 61.9355C63.0817 61.9355 63.5294 61.4878 63.5294 60.9355V55.1936C63.5294 54.6413 63.0817 54.1936 62.5294 54.1936L57.4706 54.1936C56.9183 54.1936 56.4706 53.7458 56.4706 53.1936V47.4516C56.4706 46.8993 56.9183 46.4516 57.4706 46.4516H62.5294C63.0817 46.4516 63.5294 46.0039 63.5294 45.4516V16.4839C63.5294 15.9316 63.0817 15.4839 62.5294 15.4839H57.4706C56.9183 15.4839 56.4706 15.0362 56.4706 14.4839V8.74195C56.4706 8.18967 56.9183 7.74195 57.4706 7.74195H62.5294C63.0817 7.74195 63.5294 7.29424 63.5294 6.74195V1.00002C63.5294 0.447731 63.0817 1.52588e-05 62.5294 1.52588e-05L1 1.52588e-05C0.447716 1.52588e-05 0 0.447731 0 1.00002L0 6.74195ZM48.4118 46.4516C48.9641 46.4516 49.4118 46.8993 49.4118 47.4516V53.1936C49.4118 53.7458 48.9641 54.1936 48.4118 54.1936H43.3529C42.8007 54.1936 42.3529 53.7458 42.3529 53.1936V47.4516C42.3529 46.8993 42.8007 46.4516 43.3529 46.4516H48.4118ZM34.2941 46.4516C34.8464 46.4516 35.2941 46.8993 35.2941 47.4516V53.1936C35.2941 53.7458 34.8464 54.1936 34.2941 54.1936H29.2353C28.683 54.1936 28.2353 53.7458 28.2353 53.1936V47.4516C28.2353 46.8993 28.683 46.4516 29.2353 46.4516H34.2941ZM20.1765 46.4516C20.7288 46.4516 21.1765 46.8993 21.1765 47.4516V53.1936C21.1765 53.7458 20.7288 54.1936 20.1765 54.1936H15.1176C14.5654 54.1936 14.1176 53.7458 14.1176 53.1936V47.4516C14.1176 46.8993 14.5654 46.4516 15.1176 46.4516H20.1765ZM48.4118 7.74195C48.9641 7.74195 49.4118 8.18967 49.4118 8.74195V14.4839C49.4118 15.0362 48.9641 15.4839 48.4118 15.4839H43.3529C42.8007 15.4839 42.3529 15.0362 42.3529 14.4839V8.74195C42.3529 8.18967 42.8007 7.74195 43.3529 7.74195H48.4118ZM34.2941 7.74195C34.8464 7.74195 35.2941 8.18967 35.2941 8.74195V14.4839C35.2941 15.0362 34.8464 15.4839 34.2941 15.4839H29.2353C28.683 15.4839 28.2353 15.0362 28.2353 14.4839V8.74195C28.2353 8.18967 28.683 7.74195 29.2353 7.74195H34.2941ZM20.1765 7.74195C20.7288 7.74195 21.1765 8.18967 21.1765 8.74195V14.4839C21.1765 15.0362 20.7288 15.4839 20.1765 15.4839H15.1176C14.5654 15.4839 14.1176 15.0362 14.1176 14.4839L14.1176 8.74195C14.1176 8.18967 14.5654 7.74195 15.1176 7.74195H20.1765Z" fill="#D11111"/>
<path d="M40.9872 28.9862C41.7312 29.4573 41.7312 30.5427 40.9872 31.0138L28.5479 38.8907C27.7489 39.3966 26.7059 38.8225 26.7059 37.8768L26.7059 22.1231C26.7059 21.1774 27.7489 20.6034 28.5479 21.1093L40.9872 28.9862Z" fill="white"/>
</svg>
