<svg width="85" height="80" viewBox="0 0 85 80" fill="none" xmlns="http://www.w3.org/2000/svg">
<g clip-path="url(#clip0_3_4)">
<path d="M10.625 18.5C10.625 19.3285 11.2966 20 12.125 20H16.2083C17.0368 20 17.7083 20.6716 17.7083 21.5V25.1667C17.7083 25.9951 17.0368 26.6667 16.2083 26.6667H12.125C11.2966 26.6667 10.625 27.3383 10.625 28.1667V51.8334C10.625 52.6618 11.2966 53.3334 12.125 53.3334H16.2083C17.0368 53.3334 17.7083 54.0049 17.7083 54.8334V58.5C17.7083 59.3285 17.0368 60 16.2083 60H12.125C11.2966 60 10.625 60.6716 10.625 61.5V65.1667C10.625 65.9951 11.2966 66.6667 12.125 66.6667H72.875C73.7034 66.6667 74.375 65.9951 74.375 65.1667V61.5C74.375 60.6716 73.7034 60 72.875 60H68.7917C67.9632 60 67.2917 59.3284 67.2917 58.5V54.8334C67.2917 54.0049 67.9632 53.3334 68.7917 53.3334H72.875C73.7034 53.3334 74.375 52.6618 74.375 51.8334V28.1667C74.375 27.3383 73.7034 26.6667 72.875 26.6667H68.7917C67.9632 26.6667 67.2917 25.9951 67.2917 25.1667V21.5C67.2917 20.6716 67.9632 20 68.7917 20H72.875C73.7034 20 74.375 19.3285 74.375 18.5V14.8334C74.375 14.0049 73.7034 13.3334 72.875 13.3334L12.125 13.3334C11.2966 13.3334 10.625 14.0049 10.625 14.8334V18.5ZM58.7083 53.3334C59.5368 53.3334 60.2083 54.0049 60.2083 54.8334V58.5C60.2083 59.3285 59.5368 60 58.7083 60H54.625C53.7966 60 53.125 59.3284 53.125 58.5V54.8334C53.125 54.0049 53.7966 53.3334 54.625 53.3334H58.7083ZM44.5417 53.3334C45.3701 53.3334 46.0417 54.0049 46.0417 54.8334V58.5C46.0417 59.3285 45.3701 60 44.5417 60H40.4583C39.6299 60 38.9583 59.3284 38.9583 58.5V54.8334C38.9583 54.0049 39.6299 53.3334 40.4583 53.3334H44.5417ZM30.375 53.3334C31.2034 53.3334 31.875 54.0049 31.875 54.8334V58.5C31.875 59.3285 31.2034 60 30.375 60H26.2917C25.4632 60 24.7917 59.3284 24.7917 58.5V54.8334C24.7917 54.0049 25.4632 53.3334 26.2917 53.3334H30.375ZM58.7083 20C59.5368 20 60.2083 20.6716 60.2083 21.5V25.1667C60.2083 25.9951 59.5368 26.6667 58.7083 26.6667H54.625C53.7966 26.6667 53.125 25.9951 53.125 25.1667V21.5C53.125 20.6716 53.7966 20 54.625 20H58.7083ZM44.5417 20C45.3701 20 46.0417 20.6716 46.0417 21.5V25.1667C46.0417 25.9951 45.3701 26.6667 44.5417 26.6667H40.4583C39.6299 26.6667 38.9583 25.9951 38.9583 25.1667V21.5C38.9583 20.6716 39.6299 20 40.4583 20H44.5417ZM30.375 20C31.2034 20 31.875 20.6716 31.875 21.5V25.1667C31.875 25.9951 31.2034 26.6667 30.375 26.6667H26.2917C25.4632 26.6667 24.7917 25.9951 24.7917 25.1667L24.7917 21.5C24.7917 20.6716 25.4632 20 26.2917 20H30.375Z" fill="#D11111"/>
<path d="M48.75 38.701C49.75 39.2783 49.75 40.7217 48.75 41.299L39.75 46.4952C38.75 47.0725 37.5 46.3509 37.5 45.1962V34.8038C37.5 33.6491 38.75 32.9275 39.75 33.5048L48.75 38.701Z" fill="white"/>
</g>
<defs>
<clipPath id="clip0_3_4">
<rect width="80" height="85" fill="white" transform="translate(0 80) rotate(-90)"/>
</clipPath>
</defs>
</svg>
